<?xml version="1.0" encoding="utf-8"?>
<!-- Svg Vector Icons : http://www.onlinewebfonts.com/icon -->
<!DOCTYPE svg PUBLIC "-//W3C//DTD SVG 1.1//EN" "http://www.w3.org/Graphics/SVG/1.1/DTD/svg11.dtd">
<svg version="1.1" xmlns="http://www.w3.org/2000/svg" xmlns:xlink="http://www.w3.org/1999/xlink" x="0px" y="0px" viewBox="0 0 256 256" enable-background="new 0 0 256 256" xml:space="preserve">
<metadata> Svg Vector Icons : http://www.onlinewebfonts.com/icon </metadata>
<g><g><g><g><g><path fill="#000000" d="M241.3,157.1h-43.6V95c3.4-1.4,5.9-4.8,5.9-8.7c0-5.2-4.2-9.4-9.4-9.4c-5.2,0-9.4,4.2-9.4,9.4c0,3.9,2.5,7.3,5.9,8.7v62.1H65.4V95c3.4-1.4,5.9-4.8,5.9-8.7c0-5.2-4.2-9.4-9.4-9.4c-5.2,0-9.4,4.2-9.4,9.4c0,3.9,2.5,7.3,5.9,8.7v62.1H14.7c-2.6,0-4.7,2.1-4.7,4.7v37.8c0,2.6,2.1,4.7,4.7,4.7h14.2v7.1h28.3v-7.1h141.9v7.1h28.3v-7.1h13.9c2.6,0,4.7-2.1,4.7-4.7v-37.8C246,159.2,243.9,157.1,241.3,157.1z M212.8,194.3c0,1.9-1.5,3.4-3.4,3.4H46.6c-1.9,0-3.4-1.5-3.4-3.4v-27.1c0-1.9,1.5-3.4,3.4-3.4h162.8c1.9,0,3.4,1.5,3.4,3.4V194.3L212.8,194.3z"/></g><g><path fill="#000000" d="M57.6 180.7a4.3 4.3 0 1 0 8.6 0a4.3 4.3 0 1 0 -8.6 0z"/></g><g><path fill="#000000" d="M76.5 180.7a4.3 4.3 0 1 0 8.6 0a4.3 4.3 0 1 0 -8.6 0z"/></g><g><path fill="#000000" d="M95.4 180.7a4.3 4.3 0 1 0 8.6 0a4.3 4.3 0 1 0 -8.6 0z"/></g><g><path fill="#000000" d="M114.3 180.7a4.3 4.3 0 1 0 8.6 0a4.3 4.3 0 1 0 -8.6 0z"/></g><g><path fill="#000000" d="M133.1 180.7a4.3 4.3 0 1 0 8.6 0a4.3 4.3 0 1 0 -8.6 0z"/></g><g><path fill="#000000" d="M152 180.7a4.3 4.3 0 1 0 8.6 0a4.3 4.3 0 1 0 -8.6 0z"/></g><g><path fill="#000000" d="M170.9 180.7a4.3 4.3 0 1 0 8.6 0a4.3 4.3 0 1 0 -8.6 0z"/></g><g><path fill="#000000" d="M189.8 180.7a4.3 4.3 0 1 0 8.6 0a4.3 4.3 0 1 0 -8.6 0z"/></g><g><path fill="#000000" d="M61.9,52.5c14.2,0,27.9,6.1,37.4,16.6l5.9-5.3c-11-12.2-26.8-19.2-43.3-19.2s-32.2,7-43.3,19.2l5.9,5.3C34,58.6,47.6,52.5,61.9,52.5z"/></g><g><path fill="#000000" d="M29.6,73.8l5.9,5.3c6.7-7.5,16.4-11.7,26.4-11.7c10,0,19.7,4.3,26.4,11.7l5.9-5.3c-8.2-9.1-20-14.3-32.2-14.3C49.6,59.5,37.8,64.7,29.6,73.8z"/></g><g><path fill="#000000" d="M194.1,52.5c14.2,0,27.9,6.1,37.4,16.6l5.9-5.3c-11-12.2-26.8-19.2-43.3-19.2c-16.5,0-32.2,7-43.3,19.2l5.9,5.3C166.3,58.6,179.9,52.5,194.1,52.5z"/></g><g><path fill="#000000" d="M161.9,73.8l5.9,5.3c6.7-7.5,16.4-11.7,26.4-11.7c10,0,19.7,4.3,26.4,11.7l5.9-5.3c-8.2-9.1-20-14.3-32.2-14.3C181.8,59.5,170.1,64.7,161.9,73.8z"/></g></g></g><g></g><g></g><g></g><g></g><g></g><g></g><g></g><g></g><g></g><g></g><g></g><g></g><g></g><g></g><g></g></g></g>
</svg>